<svg width="24" height="24" viewBox="0 0 24 24" fill="none" xmlns="http://www.w3.org/2000/svg">
<g id="recycle-bin-2 1">
<g id="recycle-bin-2--remove-delete-empty-bin-trash-garbage">
<path id="Vector" d="M3.69263 7.15381H20.3076" stroke="#272C30" stroke-linecap="round" stroke-linejoin="round"/>
<path id="Vector_2" d="M5.76953 7.15381H18.2308V19.6151C18.2308 19.9823 18.0849 20.3345 17.8253 20.5941C17.5656 20.8538 17.2134 20.9997 16.8462 20.9997H7.15412C6.7869 20.9997 6.43473 20.8538 6.17507 20.5941C5.91541 20.3345 5.76953 19.9823 5.76953 19.6151V7.15381Z" stroke="#272C30" stroke-linecap="round" stroke-linejoin="round"/>
<path id="Vector_3" d="M8.53857 7.15375V6.46146C8.53857 5.54342 8.90326 4.66299 9.55241 4.01384C10.2016 3.36469 11.082 3 12 3C12.9181 3 13.7985 3.36469 14.4477 4.01384C15.0968 4.66299 15.4615 5.54342 15.4615 6.46146V7.15375" stroke="#272C30" stroke-linecap="round" stroke-linejoin="round"/>
<path id="Vector_4" d="M9.92334 11.3091V16.8502" stroke="#272C30" stroke-linecap="round" stroke-linejoin="round"/>
<path id="Vector_5" d="M14.0771 11.3091V16.8502" stroke="#272C30" stroke-linecap="round" stroke-linejoin="round"/>
</g>
</g>
</svg>
