<svg width="24" height="24" viewBox="0 0 24 24" fill="none" xmlns="http://www.w3.org/2000/svg">
<g id="calendar-edit 1">
<g id="calendar-edit--calendar-date-day-compose-edit-note">
<path id="Vector" d="M4.38461 5.07666C4.01739 5.07666 3.66521 5.22254 3.40554 5.4822C3.14588 5.74187 3 6.09405 3 6.46127V19.6151C3 19.9823 3.14588 20.3345 3.40554 20.5941C3.66521 20.8538 4.01739 20.9997 4.38461 20.9997H19.6153C19.9826 20.9997 20.3347 20.8538 20.5944 20.5941C20.8541 20.3345 20.9999 19.9823 20.9999 19.6151V6.46127C20.9999 6.09405 20.8541 5.74187 20.5944 5.4822C20.3347 5.22254 19.9826 5.07666 19.6153 5.07666H16.8461" stroke="#569DAA" stroke-linecap="round" stroke-linejoin="round"/>
<path id="Vector_2" d="M7.15381 3V7.15383" stroke="#569DAA" stroke-linecap="round" stroke-linejoin="round"/>
<path id="Vector_3" d="M16.8462 3V7.15383" stroke="#569DAA" stroke-linecap="round" stroke-linejoin="round"/>
<path id="Vector_4" d="M7.15381 5.07666H14.0769" stroke="#569DAA" stroke-linecap="round" stroke-linejoin="round"/>
</g>
</g>
</svg>
