<svg width="23" height="23" viewBox="0 0 23 23" fill="none" xmlns="http://www.w3.org/2000/svg">
<g id="shopping-cart-1 (1) 1">
<g id="shopping-cart-1--shopping-cart-checkout">
<path id="Vector" d="M1.22412 1.22217H5.04515L6.40645 14.7569C6.46303 15.13 6.65255 15.4701 6.94009 15.7145C7.22763 15.9589 7.59381 16.0912 7.97116 16.0869H17.8288C18.1701 16.1047 18.5077 16.0104 18.7903 15.8183C19.0728 15.6261 19.2847 15.3468 19.3936 15.0229L21.4746 8.76408C21.5523 8.52879 21.573 8.27839 21.5349 8.03354C21.4968 7.78869 21.4011 7.55641 21.2556 7.35584C21.1041 7.14254 20.9015 6.97062 20.6665 6.85581C20.4314 6.74101 20.1713 6.68697 19.9099 6.69866H5.5928" stroke="#272C30" stroke-linecap="round" stroke-linejoin="round"/>
<path id="Vector_2" d="M17.5631 21.5632C17.3556 21.5632 17.1566 21.4808 17.0099 21.3341C16.8632 21.1874 16.7808 20.9884 16.7808 20.7809C16.7808 20.5734 16.8632 20.3744 17.0099 20.2277C17.1566 20.081 17.3556 19.9985 17.5631 19.9985C17.7706 19.9985 17.9696 20.081 18.1163 20.2277C18.263 20.3744 18.3455 20.5734 18.3455 20.7809C18.3455 20.9884 18.263 21.1874 18.1163 21.3341C17.9696 21.4808 17.7706 21.5632 17.5631 21.5632Z" stroke="#272C30" stroke-linecap="round" stroke-linejoin="round"/>
<path id="Vector_3" d="M7.39173 21.5632C7.18424 21.5632 6.98524 21.4808 6.83852 21.3341C6.6918 21.1874 6.60938 20.9884 6.60938 20.7809C6.60938 20.5734 6.6918 20.3744 6.83852 20.2277C6.98524 20.081 7.18424 19.9985 7.39173 19.9985C7.59922 19.9985 7.79822 20.081 7.94494 20.2277C8.09166 20.3744 8.17409 20.5734 8.17409 20.7809C8.17409 20.9884 8.09166 21.1874 7.94494 21.3341C7.79822 21.4808 7.59922 21.5632 7.39173 21.5632Z" stroke="#272C30" stroke-linecap="round" stroke-linejoin="round"/>
</g>
</g>
</svg>
