<svg width="24" height="24" viewBox="0 0 24 24" fill="none" xmlns="http://www.w3.org/2000/svg">
<g id="shopping-cart-1 (1) 1">
<g id="shopping-cart-1--shopping-cart-checkout">
<path id="Vector" d="M3.00098 3H6.54322L7.8052 15.5473C7.85765 15.8931 8.03334 16.2084 8.2999 16.435C8.56646 16.6616 8.90593 16.7842 9.25575 16.7802H18.3942C18.7105 16.7967 19.0235 16.7092 19.2855 16.5311C19.5474 16.353 19.7438 16.0941 19.8448 15.7938L21.774 9.99165C21.846 9.77352 21.8652 9.5414 21.8299 9.31441C21.7946 9.08742 21.7058 8.87208 21.5709 8.68615C21.4305 8.48841 21.2427 8.32904 21.0248 8.22261C20.8069 8.11618 20.5657 8.06609 20.3234 8.07692H7.05091" stroke="#569DAA" stroke-linecap="round" stroke-linejoin="round"/>
<path id="Vector_2" d="M18.1476 21.8573C17.9553 21.8573 17.7708 21.7809 17.6348 21.6449C17.4988 21.5088 17.4224 21.3244 17.4224 21.132C17.4224 20.9397 17.4988 20.7552 17.6348 20.6192C17.7708 20.4832 17.9553 20.4067 18.1476 20.4067C18.34 20.4067 18.5245 20.4832 18.6605 20.6192C18.7965 20.7552 18.8729 20.9397 18.8729 21.132C18.8729 21.3244 18.7965 21.5088 18.6605 21.6449C18.5245 21.7809 18.34 21.8573 18.1476 21.8573Z" stroke="#569DAA" stroke-linecap="round" stroke-linejoin="round"/>
<path id="Vector_3" d="M8.71893 21.8573C8.52657 21.8573 8.3421 21.7809 8.20608 21.6449C8.07006 21.5088 7.99365 21.3244 7.99365 21.132C7.99365 20.9397 8.07006 20.7552 8.20608 20.6192C8.3421 20.4832 8.52657 20.4067 8.71893 20.4067C8.91128 20.4067 9.09576 20.4832 9.23177 20.6192C9.36779 20.7552 9.4442 20.9397 9.4442 21.132C9.4442 21.3244 9.36779 21.5088 9.23177 21.6449C9.09576 21.7809 8.91128 21.8573 8.71893 21.8573Z" stroke="#569DAA" stroke-linecap="round" stroke-linejoin="round"/>
</g>
</g>
</svg>
