<svg width="17" height="17" viewBox="0 0 17 17" fill="none" xmlns="http://www.w3.org/2000/svg">
<path d="M6.3458 14.5105L1.26831 15.9316L2.69001 10.8563L11.9875 1.6079C12.0925 1.50047 12.218 1.41512 12.3566 1.35685C12.4951 1.29857 12.6439 1.26855 12.7942 1.26855C12.9445 1.26855 13.0933 1.29857 13.2318 1.35685C13.3704 1.41512 13.4959 1.50047 13.601 1.6079L15.5981 3.61548C15.7037 3.7204 15.7876 3.84517 15.8448 3.9826C15.9019 4.12003 15.9314 4.26741 15.9314 4.41625C15.9314 4.5651 15.9019 4.71248 15.8448 4.84991C15.7876 4.98734 15.7037 5.11211 15.5981 5.21703L6.3458 14.5105Z" stroke="#272C30" stroke-linecap="round" stroke-linejoin="round"/>
</svg>
