<svg width="24" height="24" viewBox="0 0 24 24" fill="none" xmlns="http://www.w3.org/2000/svg">
<path d="M18.8572 3.42822H22.2857C22.5131 3.42822 22.7311 3.51853 22.8918 3.67927C23.0526 3.84002 23.1429 4.05804 23.1429 4.28537V17.9997C23.1429 18.227 23.0526 18.445 22.8918 18.6057C22.7311 18.7665 22.5131 18.8568 22.2857 18.8568H1.71432C1.48699 18.8568 1.26897 18.7665 1.10823 18.6057C0.947484 18.445 0.857178 18.227 0.857178 17.9997V4.28537C0.857178 4.05804 0.947484 3.84002 1.10823 3.67927C1.26897 3.51853 1.48699 3.42822 1.71432 3.42822H5.14289" stroke="#569DAA" stroke-linecap="round" stroke-linejoin="round"/>
<path d="M10.2857 18.8569L8.57141 23.1426" stroke="#569DAA" stroke-linecap="round" stroke-linejoin="round"/>
<path d="M13.7144 18.8569L15.4286 23.1426" stroke="#569DAA" stroke-linecap="round" stroke-linejoin="round"/>
<path d="M6.85718 23.1426H17.1429" stroke="#569DAA" stroke-linecap="round" stroke-linejoin="round"/>
<path d="M12 11.1426V0.856934" stroke="#569DAA" stroke-linecap="round" stroke-linejoin="round"/>
<path d="M8.57141 4.28551L12 0.856934L15.4286 4.28551" stroke="#569DAA" stroke-linecap="round" stroke-linejoin="round"/>
</svg>
