<svg width="40" height="40" viewBox="0 0 40 40" fill="none" xmlns="http://www.w3.org/2000/svg">
<path d="M15.3844 26.4618V30.1541C15.3844 30.6437 15.5789 31.1133 15.9252 31.4595C16.2714 31.8058 16.741 32.0003 17.2306 32.0003H30.1538C30.6435 32.0003 31.113 31.8058 31.4593 31.4595C31.8055 31.1133 32 30.6437 32 30.1541V9.84618C32 9.35654 31.8055 8.88696 31.4593 8.54073C31.113 8.19451 30.6435 8 30.1538 8H17.2306C16.741 8 16.2714 8.19451 15.9252 8.54073C15.5789 8.88696 15.3844 9.35654 15.3844 9.84618V13.5385" stroke="#272C30" stroke-linecap="round" stroke-linejoin="round"/>
<path d="M20.9231 20H7.99987" stroke="#569DAA" stroke-linecap="round" stroke-linejoin="round"/>
<path d="M11.6921 16.3076L7.99979 20L11.6921 23.6923" stroke="#569DAA" stroke-linecap="round" stroke-linejoin="round"/>
</svg>
