<svg width="24" height="24" viewBox="0 0 24 24" fill="none" xmlns="http://www.w3.org/2000/svg">
<g id="dollar-coin 1">
<g id="dollar-coin--accounting-billing-payment-cash-coin-currency-money-finance">
<path id="Vector" d="M12 22C14.6522 22 17.1957 20.9465 19.0711 19.0711C20.9465 17.1957 22 14.6522 22 12C22 9.34785 20.9465 6.80431 19.0711 4.92894C17.1957 3.05357 14.6522 2 12 2C9.34785 2 6.80431 3.05357 4.92894 4.92894C3.05357 6.80431 2 9.34785 2 12C2 14.6522 3.05357 17.1957 4.92894 19.0711C6.80431 20.9465 9.34785 22 12 22Z" stroke="#569DAA" stroke-linecap="round" stroke-linejoin="round"/>
<path id="Vector 3" d="M14.6183 9.26467C14.4772 8.86431 14.2151 8.51768 13.8684 8.27268C13.5217 8.02767 13.1075 7.89639 12.683 7.89698H11.0953C10.6432 7.89623 10.2069 8.06276 9.87026 8.36449C9.53365 8.66622 9.32057 9.08182 9.27205 9.53126C9.22354 9.9807 9.34302 10.4322 9.60748 10.7988C9.87194 11.1654 10.2627 11.4212 10.7045 11.517L13.1214 12.0462C13.6155 12.1546 14.0522 12.4417 14.3476 12.8524C14.643 13.2631 14.7763 13.7684 14.722 14.2714C14.6676 14.7743 14.4294 15.2395 14.0531 15.5775C13.6768 15.9156 13.1888 16.1028 12.683 16.1031H11.3168C10.8922 16.1032 10.478 15.9715 10.1314 15.7263C9.78477 15.481 9.52273 15.1343 9.38141 14.7339" stroke="#569DAA" stroke-linecap="round" stroke-linejoin="round"/>
<path id="Vector 2489" d="M12 7.89697V5.84619" stroke="#569DAA" stroke-linecap="round" stroke-linejoin="round"/>
<path id="Vector 2490" d="M12 18.1539V16.1016" stroke="#569DAA" stroke-linecap="round" stroke-linejoin="round"/>
</g>
</g>
</svg>
