<svg width="40" height="40" viewBox="0 0 40 40" fill="none" xmlns="http://www.w3.org/2000/svg">
<g opacity="0.75">
<path d="M25.7143 7.42871H29.1428C29.749 7.42871 30.3304 7.66953 30.7591 8.09818C31.1877 8.52684 31.4286 9.10822 31.4286 9.71443V32.5716C31.4286 33.1778 31.1877 33.7592 30.7591 34.1878C30.3304 34.6165 29.749 34.8573 29.1428 34.8573H10.8571C10.2509 34.8573 9.66954 34.6165 9.24088 34.1878C8.81223 33.7592 8.57141 33.1778 8.57141 32.5716V9.71443C8.57141 9.10822 8.81223 8.52684 9.24088 8.09818C9.66954 7.66953 10.2509 7.42871 10.8571 7.42871H14.2857" stroke="#272C30" stroke-linecap="round" stroke-linejoin="round"/>
<path d="M23.4285 5.14307H16.5714C15.309 5.14307 14.2856 6.16642 14.2856 7.42878V8.57164C14.2856 9.834 15.309 10.8574 16.5714 10.8574H23.4285C24.6909 10.8574 25.7142 9.834 25.7142 8.57164V7.42878C25.7142 6.16642 24.6909 5.14307 23.4285 5.14307Z" stroke="#272C30" stroke-linecap="round" stroke-linejoin="round"/>
<path d="M14.2856 16.5718H25.7142" stroke="#272C30" stroke-linecap="round" stroke-linejoin="round"/>
<path d="M14.2856 22.2861H25.7142" stroke="#272C30" stroke-linecap="round" stroke-linejoin="round"/>
<path d="M14.2856 28H25.7142" stroke="#272C30" stroke-linecap="round" stroke-linejoin="round"/>
</g>
</svg>
