<svg width="40" height="40" viewBox="0 0 40 40" fill="none" xmlns="http://www.w3.org/2000/svg">
<g opacity="0.75">
<path d="M9.84619 22.7695V31.0773C9.84619 31.3221 9.94344 31.5569 10.1166 31.73C10.2897 31.9031 10.5245 32.0003 10.7693 32.0003H29.2309C29.4757 32.0003 29.7105 31.9031 29.8836 31.73C30.0567 31.5569 30.154 31.3221 30.154 31.0773V22.7695" stroke="#272C30" stroke-linecap="round" stroke-linejoin="round"/>
<path d="M21.8463 22.7695V32.0003" stroke="#272C30" stroke-linecap="round" stroke-linejoin="round"/>
<path d="M9.84619 25.5386H21.8462" stroke="#272C30" stroke-linecap="round" stroke-linejoin="round"/>
<path d="M16.0554 14.6152V16.4614C16.0554 17.4407 15.6664 18.3798 14.9739 19.0723C14.2815 19.7647 13.3423 20.1537 12.3631 20.1537H11.8461C10.8669 20.1537 9.92771 19.7647 9.23526 19.0723C8.54282 18.3798 8.15381 17.4407 8.15381 16.4614V14.6152" stroke="#272C30" stroke-linecap="round" stroke-linejoin="round"/>
<path d="M24.154 14.4614V16.3076C24.154 17.2869 23.765 18.226 23.0726 18.9185C22.3801 19.6109 21.441 19.9999 20.4617 19.9999H19.5386C18.5594 19.9999 17.6202 19.6109 16.9278 18.9185C16.2353 18.226 15.8463 17.2869 15.8463 16.3076V14.4614" stroke="#272C30" stroke-linecap="round" stroke-linejoin="round"/>
<path d="M32 14.4614V16.3076C32 17.2869 31.611 18.226 30.9185 18.9185C30.2261 19.6109 29.2869 19.9999 28.3077 19.9999H27.8461C26.8669 19.9999 25.9277 19.6109 25.2353 18.9185C24.5428 18.226 24.1538 17.2869 24.1538 16.3076V14.4614" stroke="#272C30" stroke-linecap="round" stroke-linejoin="round"/>
<path d="M8 14.4616L10.7692 8H29.2308L32.0001 14.4616H8Z" stroke="#272C30" stroke-linecap="round" stroke-linejoin="round"/>
</g>
</svg>
